# xmcd
# 
# Track frame offsets:
#     150
#     19022
#     36380
#     51825
#     66640
#     85840
#     96317
#     108762
#     115112
#     142457
#     168305
# 
# Disc length: 2438
# 
# Revision: 1
# Processed by: cddbd v1.5.2PL0 Copyright (c) Steve Scherf et al.
# Submitted via: fre:ac v1.0.17
# 
DISCID=9c09840b
DTITLE=Michael Pinder - The Promise
DYEAR=0
DGENRE=
TTITLE0=Free As A Dove
TTITLE1=You'll Make It Through
TTITLE2=Only Want To Love You
TTITLE3=Someone To Believe In
TTITLE4=Carry On
TTITLE5=Air (Instrumental)
TTITLE6=Message
TTITLE7=The Seed
TTITLE8=The Promise
TTITLE9=One Step Into The Light
TTITLE10=Island to Island
EXTD=
EXTT0=
EXTT1=
EXTT2=
EXTT3=
EXTT4=
EXTT5=
EXTT6=
EXTT7=
EXTT8=
EXTT9=
EXTT10=
PLAYORDER=
